<?xml version="1.0" encoding="UTF-8" standalone="no"?>
<!--
Windows 98 logo vector by George Walker: https://pkmnct.deviantart.com/art/Windows-98-Logo-Vector-211754675
JS community logo: https://github.com/voodootikigod/logo.js/
-->

<svg
   id="svg2985"
   version="1.1"
   inkscape:version="1.1.2 (0a00cf5339, 2022-02-04)"
   width="484.18103"
   height="566.12677"
   sodipodi:docname="98.js.org.text-source.svg"
   xmlns:inkscape="http://www.inkscape.org/namespaces/inkscape"
   xmlns:sodipodi="http://sodipodi.sourceforge.net/DTD/sodipodi-0.dtd"
   xmlns="http://www.w3.org/2000/svg"
   xmlns:svg="http://www.w3.org/2000/svg"
   xmlns:rdf="http://www.w3.org/1999/02/22-rdf-syntax-ns#"
   xmlns:cc="http://creativecommons.org/ns#"
   xmlns:dc="http://purl.org/dc/elements/1.1/">
  <metadata
     id="metadata2991">
    <rdf:RDF>
      <cc:Work
         rdf:about="">
        <dc:format>image/svg+xml</dc:format>
        <dc:type
           rdf:resource="http://purl.org/dc/dcmitype/StillImage" />
        <dc:title />
      </cc:Work>
    </rdf:RDF>
  </metadata>
  <defs
     id="defs2989">
    <inkscape:perspective
       id="perspective48"
       inkscape:persp3d-origin="138 : 19.666667 : 1"
       inkscape:vp_z="276 : 29.5 : 1"
       inkscape:vp_y="0 : 1000 : 0"
       inkscape:vp_x="0 : 29.5 : 1"
       sodipodi:type="inkscape:persp3d" />
  </defs>
  <sodipodi:namedview
     pagecolor="#ffffff"
     bordercolor="#666666"
     borderopacity="1"
     objecttolerance="10"
     gridtolerance="10"
     guidetolerance="10"
     inkscape:pageopacity="0"
     inkscape:pageshadow="2"
     inkscape:window-width="2560"
     inkscape:window-height="1375"
     id="namedview2987"
     showgrid="false"
     inkscape:zoom="0.97712645"
     inkscape:cx="299.34713"
     inkscape:cy="172.95612"
     inkscape:window-x="0"
     inkscape:window-y="36"
     inkscape:window-maximized="1"
     inkscape:current-layer="svg2985"
     showborder="true"
     fit-margin-top="0"
     fit-margin-left="0"
     fit-margin-right="0"
     fit-margin-bottom="0"
     inkscape:pagecheckerboard="0" />
  <g
     id="g3652"
     transform="translate(-116.56253,-176.56085)">
    <g
       transform="matrix(1.0872006,0.414276,-0.414276,1.0872006,-68.950933,-262.32295)"
       id="g3509">
      <polygon
         style="clip-rule:evenodd;fill:#a8ce81;fill-rule:evenodd"
         points="329.128,342.317 329.128,342.317 347.601,342.317 347.601,372.217 329.128,372.217 "
         id="polygon3234"
         transform="matrix(3.357686,0,0,3.4628058,-481.17152,-914.30628)" />
      <polygon
         style="clip-rule:evenodd;fill:#f7df1e;fill-rule:evenodd"
         points="329.128,372.788 329.128,372.788 347.601,372.788 347.601,402.689 329.128,402.689 "
         id="polygon3236"
         transform="matrix(3.357686,0,0,3.4628058,-481.17152,-914.30628)" />
      <polygon
         style="clip-rule:evenodd;fill:#ef7066;fill-rule:evenodd"
         points="306.651,343.085 306.651,343.085 325.125,343.085 325.125,372.979 306.651,372.979 "
         id="polygon3238"
         transform="matrix(3.357686,0,0,3.4628058,-481.17152,-914.30628)" />
      <polygon
         style="clip-rule:evenodd;fill:#6eaed7;fill-rule:evenodd"
         points="306.651,373.55 306.651,373.55 325.125,373.55 325.125,403.254 306.651,403.254 "
         id="polygon3240"
         transform="matrix(3.357686,0,0,3.4628058,-481.17152,-914.30628)" />
      <path
         style="clip-rule:evenodd;fill:#000101;fill-rule:evenodd"
         inkscape:connector-curvature="0"
         d="m 682.75354,363.39634 c -13.62884,-4.3943 -31.15261,-8.00947 -51.78223,-8.00947 -1.34979,0.10042 -2.60556,0.0242 -3.84791,0.0242 l 0,-80.38207 c 1.47067,-0.29088 2.92455,-0.31858 4.4758,0 20.34422,-0.31858 37.66988,3.19963 51.15434,7.25458 l 0,81.11276 0,0 0,0 z m 0,106.84487 c -13.61877,-4.07918 -31.15261,-7.69781 -51.78223,-7.94714 -1.33636,0.24933 -2.58542,0.24933 -3.84791,0 l 0,-82.41131 c 1.47067,-0.14544 2.92455,-0.16968 4.4758,0 20.34422,-0.16968 37.66988,3.34507 51.15434,7.91597 l 0,82.44248 0,0 0,0 z m 33.25117,-207.7441 c 0,0 -31.91481,-22.15157 -83.76755,-22.42167 -52.0307,0.2701 -83.95894,17.78151 -83.76755,17.78151 l 0,36.29366 c -0.19139,-0.24239 20.49531,-12.91972 56.28489,-17.80574 l 0,81.11622 c -35.99775,4.59168 -56.38898,17.95119 -56.38898,17.80575 l 0.10409,25.05686 c 0,0 20.11925,-14.23906 56.28489,-19.12507 l 0,83.75834 c -29.74574,3.49744 -49.64003,11.72853 -56.28489,15.17055 l 0,34.95357 c 8.40764,-4.22809 37.8109,-16.386 81.21235,-16.386 51.90311,-0.10042 83.81456,21.32396 83.81456,21.00538 l 2.50819,-257.20336 0,0 z"
         id="path3242" />
      <polygon
         style="clip-rule:evenodd;fill:#000101;fill-rule:evenodd"
         points="295.799,343.27 295.799,343.27 305.51,339.08 305.51,349.364 295.799,353.553 "
         id="polygon3244"
         transform="matrix(3.357686,0,0,3.4628058,-481.17152,-914.30628)" />
      <polygon
         style="clip-rule:evenodd;fill:#000101;fill-rule:evenodd"
         points="295.799,407.07 295.799,407.07 305.51,402.881 305.51,412.975 295.799,417.348 "
         id="polygon3246"
         transform="matrix(3.357686,0,0,3.4628058,-481.17152,-914.30628)" />
      <polygon
         style="clip-rule:evenodd;fill:#000101;fill-rule:evenodd"
         points="295.799,396.594 295.799,396.594 305.51,392.404 305.51,401.738 295.799,405.928 "
         id="polygon3248"
         transform="matrix(3.357686,0,0,3.4628058,-481.17152,-914.30628)" />
      <polygon
         style="clip-rule:evenodd;fill:#000101;fill-rule:evenodd"
         points="295.799,354.696 295.799,354.696 305.51,350.506 305.51,359.838 295.799,364.028 "
         id="polygon3250"
         transform="matrix(3.357686,0,0,3.4628058,-481.17152,-914.30628)" />
      <polygon
         style="clip-rule:evenodd;fill:#000101;fill-rule:evenodd"
         points="295.799,375.645 295.799,375.645 305.51,371.455 305.51,380.787 295.799,384.977 "
         id="polygon3252"
         transform="matrix(3.357686,0,0,3.4628058,-481.17152,-914.30628)" />
      <polygon
         style="clip-rule:evenodd;fill:#000101;fill-rule:evenodd"
         points="295.799,386.12 295.799,386.12 305.51,381.93 305.51,391.262 295.799,395.451 "
         id="polygon3254"
         transform="matrix(3.357686,0,0,3.4628058,-481.17152,-914.30628)" />
      <polygon
         style="clip-rule:evenodd;fill:#000101;fill-rule:evenodd"
         points="295.799,365.17 295.799,365.17 305.51,360.98 305.51,370.313 295.799,374.502 "
         id="polygon3256"
         transform="matrix(3.357686,0,0,3.4628058,-481.17152,-914.30628)" />
      <polygon
         style="clip-rule:evenodd;fill:#000101;fill-rule:evenodd"
         points="285.134,346.507 285.134,346.507 294.467,342.317 294.467,350.506 285.134,354.505 "
         id="polygon3258"
         transform="matrix(3.357686,0,0,3.4628058,-481.17152,-914.30628)" />
      <polygon
         style="clip-rule:evenodd;fill:#000101;fill-rule:evenodd"
         points="250.856,341.174 250.856,341.174 254.666,339.467 254.666,342.889 250.856,344.602 "
         id="polygon3260"
         transform="matrix(3.357686,0,0,3.4628058,-481.17152,-914.30628)" />
      <polygon
         style="clip-rule:evenodd;fill:#000101;fill-rule:evenodd"
         points="275.423,347.269 275.423,347.269 283.61,343.65 283.61,349.935 275.423,353.553 "
         id="polygon3262"
         transform="matrix(3.357686,0,0,3.4628058,-481.17152,-914.30628)" />
      <polygon
         style="clip-rule:evenodd;fill:#000101;fill-rule:evenodd"
         points="266.662,346.507 266.662,346.507 273.33,343.65 273.33,348.412 266.662,351.268 "
         id="polygon3264"
         transform="matrix(3.357686,0,0,3.4628058,-481.17152,-914.30628)" />
      <polygon
         style="clip-rule:evenodd;fill:#000101;fill-rule:evenodd"
         points="258.663,343.84 258.663,343.84 264.188,341.555 264.188,345.174 258.663,347.65 "
         id="polygon3266"
         transform="matrix(3.357686,0,0,3.4628058,-481.17152,-914.30628)" />
      <polygon
         style="clip-rule:evenodd;fill:#000101;fill-rule:evenodd"
         points="285.134,378.501 285.134,378.501 294.467,374.502 294.467,382.501 285.134,386.5 "
         id="polygon3268"
         transform="matrix(3.357686,0,0,3.4628058,-481.17152,-914.30628)" />
      <polygon
         style="clip-rule:evenodd;fill:#000101;fill-rule:evenodd"
         points="250.856,373.169 250.856,373.169 254.666,371.455 254.666,375.074 250.856,376.597 "
         id="polygon3270"
         transform="matrix(3.357686,0,0,3.4628058,-481.17152,-914.30628)" />
      <polygon
         style="clip-rule:evenodd;fill:#000101;fill-rule:evenodd"
         points="275.423,379.263 275.423,379.263 283.61,375.645 283.61,381.93 275.423,385.548 "
         id="polygon3272"
         transform="matrix(3.357686,0,0,3.4628058,-481.17152,-914.30628)" />
      <polygon
         style="clip-rule:evenodd;fill:#000101;fill-rule:evenodd"
         points="266.662,378.501 266.662,378.501 273.33,375.645 273.33,380.406 266.662,383.263 "
         id="polygon3274"
         transform="matrix(3.357686,0,0,3.4628058,-481.17152,-914.30628)" />
      <polygon
         style="clip-rule:evenodd;fill:#000101;fill-rule:evenodd"
         points="258.663,376.026 258.663,376.026 264.188,373.55 264.188,377.168 258.663,379.644 "
         id="polygon3276"
         transform="matrix(3.357686,0,0,3.4628058,-481.17152,-914.30628)" />
      <polygon
         style="clip-rule:evenodd;fill:#000101;fill-rule:evenodd"
         points="285.134,410.301 285.134,410.301 294.467,406.111 294.467,414.117 285.134,418.299 "
         id="polygon3278"
         transform="matrix(3.357686,0,0,3.4628058,-481.17152,-914.30628)" />
      <polygon
         style="clip-rule:evenodd;fill:#000101;fill-rule:evenodd"
         points="250.856,404.785 250.856,404.785 254.666,403.254 254.666,406.689 250.856,408.402 "
         id="polygon3280"
         transform="matrix(3.357686,0,0,3.4628058,-481.17152,-914.30628)" />
      <polygon
         style="clip-rule:evenodd;fill:#000101;fill-rule:evenodd"
         points="275.423,411.063 275.423,411.063 283.61,407.443 283.61,413.545 275.423,417.164 "
         id="polygon3282"
         transform="matrix(3.357686,0,0,3.4628058,-481.17152,-914.30628)" />
      <polygon
         style="clip-rule:evenodd;fill:#000101;fill-rule:evenodd"
         points="266.662,410.301 266.662,410.301 273.33,407.443 273.33,412.021 266.662,414.879 "
         id="polygon3284"
         transform="matrix(3.357686,0,0,3.4628058,-481.17152,-914.30628)" />
      <polygon
         style="clip-rule:evenodd;fill:#000101;fill-rule:evenodd"
         points="258.663,407.641 258.663,407.641 264.188,405.35 264.188,408.967 258.663,411.26 "
         id="polygon3286"
         transform="matrix(3.357686,0,0,3.4628058,-481.17152,-914.30628)" />
      <polygon
         style="clip-rule:evenodd;fill:#ef7066;fill-rule:evenodd"
         points="259.616,354.315 259.616,354.315 263.614,352.411 263.614,355.838 259.616,357.743 "
         id="polygon3288"
         transform="matrix(3.357686,0,0,3.4628058,-481.17152,-914.30628)" />
      <polygon
         style="clip-rule:evenodd;fill:#ef7066;fill-rule:evenodd"
         points="286.276,357.553 286.276,357.553 293.896,354.315 293.896,360.791 286.276,364.218 "
         id="polygon3290"
         transform="matrix(3.357686,0,0,3.4628058,-481.17152,-914.30628)" />
      <polygon
         style="clip-rule:evenodd;fill:#ef7066;fill-rule:evenodd"
         points="276.374,357.743 276.374,357.743 283.231,354.696 283.231,360.219 276.374,363.266 "
         id="polygon3292"
         transform="matrix(3.357686,0,0,3.4628058,-481.17152,-914.30628)" />
      <polygon
         style="clip-rule:evenodd;fill:#ef7066;fill-rule:evenodd"
         points="267.616,357.172 267.616,357.172 272.945,354.886 272.945,359.076 267.616,361.361 "
         id="polygon3294"
         transform="matrix(3.357686,0,0,3.4628058,-481.17152,-914.30628)" />
      <polygon
         style="clip-rule:evenodd;fill:#ef7066;fill-rule:evenodd"
         points="251.046,351.649 251.046,351.649 254.095,350.315 254.095,353.173 251.046,354.505 "
         id="polygon3296"
         transform="matrix(3.357686,0,0,3.4628058,-481.17152,-914.30628)" />
      <polygon
         style="clip-rule:evenodd;fill:#ef7066;fill-rule:evenodd"
         points="259.616,364.79 259.616,364.79 263.614,362.885 263.614,366.313 259.616,368.218 "
         id="polygon3298"
         transform="matrix(3.357686,0,0,3.4628058,-481.17152,-914.30628)" />
      <polygon
         style="clip-rule:evenodd;fill:#ef7066;fill-rule:evenodd"
         points="286.276,368.027 286.276,368.027 293.896,364.599 293.896,371.265 286.276,374.692 "
         id="polygon3300"
         transform="matrix(3.357686,0,0,3.4628058,-481.17152,-914.30628)" />
      <polygon
         style="clip-rule:evenodd;fill:#ef7066;fill-rule:evenodd"
         points="276.374,368.218 276.374,368.218 283.231,365.17 283.231,370.693 276.374,373.55 "
         id="polygon3302"
         transform="matrix(3.357686,0,0,3.4628058,-481.17152,-914.30628)" />
      <polygon
         style="clip-rule:evenodd;fill:#ef7066;fill-rule:evenodd"
         points="267.616,367.646 267.616,367.646 272.945,365.361 272.945,369.36 267.616,371.836 "
         id="polygon3304"
         transform="matrix(3.357686,0,0,3.4628058,-481.17152,-914.30628)" />
      <polygon
         style="clip-rule:evenodd;fill:#ef7066;fill-rule:evenodd"
         points="251.046,361.933 251.046,361.933 254.095,360.6 254.095,363.647 251.046,364.98 "
         id="polygon3306"
         transform="matrix(3.357686,0,0,3.4628058,-481.17152,-914.30628)" />
      <polygon
         style="clip-rule:evenodd;fill:#6eaed7;fill-rule:evenodd"
         points="259.616,386.31 259.616,386.31 263.614,384.596 263.614,388.024 259.616,389.738 "
         id="polygon3308"
         transform="matrix(3.357686,0,0,3.4628058,-481.17152,-914.30628)" />
      <polygon
         style="clip-rule:evenodd;fill:#6eaed7;fill-rule:evenodd"
         points="286.276,389.738 286.276,389.738 293.896,386.31 293.896,392.976 286.276,396.404 "
         id="polygon3310"
         transform="matrix(3.357686,0,0,3.4628058,-481.17152,-914.30628)" />
      <polygon
         style="clip-rule:evenodd;fill:#6eaed7;fill-rule:evenodd"
         points="276.374,389.738 276.374,389.738 283.231,386.881 283.231,392.213 276.374,395.261 "
         id="polygon3312"
         transform="matrix(3.357686,0,0,3.4628058,-481.17152,-914.30628)" />
      <polygon
         style="clip-rule:evenodd;fill:#6eaed7;fill-rule:evenodd"
         points="267.616,389.357 267.616,389.357 272.945,387.072 272.945,391.071 267.616,393.356 "
         id="polygon3314"
         transform="matrix(3.357686,0,0,3.4628058,-481.17152,-914.30628)" />
      <polygon
         style="clip-rule:evenodd;fill:#6eaed7;fill-rule:evenodd"
         points="251.046,383.644 251.046,383.644 254.095,382.311 254.095,385.357 251.046,386.691 "
         id="polygon3316"
         transform="matrix(3.357686,0,0,3.4628058,-481.17152,-914.30628)" />
      <polygon
         style="clip-rule:evenodd;fill:#6eaed7;fill-rule:evenodd"
         points="259.616,396.785 259.616,396.785 263.614,395.07 263.614,398.5 259.616,400.213 "
         id="polygon3318"
         transform="matrix(3.357686,0,0,3.4628058,-481.17152,-914.30628)" />
      <polygon
         style="clip-rule:evenodd;fill:#6eaed7;fill-rule:evenodd"
         points="286.276,400.213 286.276,400.213 293.896,396.785 293.896,403.451 286.276,406.689 "
         id="polygon3320"
         transform="matrix(3.357686,0,0,3.4628058,-481.17152,-914.30628)" />
      <polygon
         style="clip-rule:evenodd;fill:#6eaed7;fill-rule:evenodd"
         points="276.374,400.213 276.374,400.213 283.231,397.166 283.231,402.689 276.374,405.736 "
         id="polygon3322"
         transform="matrix(3.357686,0,0,3.4628058,-481.17152,-914.30628)" />
      <polygon
         style="clip-rule:evenodd;fill:#6eaed7;fill-rule:evenodd"
         points="267.616,399.834 267.616,399.834 272.945,397.355 272.945,401.547 267.616,403.832 "
         id="polygon3324"
         transform="matrix(3.357686,0,0,3.4628058,-481.17152,-914.30628)" />
      <polygon
         style="clip-rule:evenodd;fill:#6eaed7;fill-rule:evenodd"
         points="251.046,394.118 251.046,394.118 254.095,392.785 254.095,395.642 251.046,396.975 "
         id="polygon3326"
         transform="matrix(3.357686,0,0,3.4628058,-481.17152,-914.30628)" />
    </g>
  </g>
  <g
     id="g21924"
     transform="matrix(1.2718072,0,0,1.2866021,-8.2563511,-100.17311)">
    <path
       d="M 9.6503906,429.34495 V 402.66526 H 20.207031 l 4.003906,13.24219 4.238282,-13.24219 h 10.478515 v 26.67969 h -7.314453 v -19.19922 l -6.005859,19.19922 h -4.355469 l -5.878906,-19.19922 v 19.19922 z"
       style="font-size:40px;line-height:1.25;font-family:'Franklin Gothic';-inkscape-font-specification:'Franklin Gothic';white-space:pre;shape-inside:url(#rect2366)"
       id="path18650" />
    <path
       d="m 43.566406,429.34495 v -18.91602 h 6.201172 v 18.91602 z m 0,-21.20117 v -5.59571 h 6.201172 v 5.59571 z"
       style="font-size:40px;line-height:1.25;font-family:'Franklin Gothic';-inkscape-font-specification:'Franklin Gothic';white-space:pre;shape-inside:url(#rect2366)"
       id="path18652" />
    <path
       d="m 66.242187,422.6262 4.160157,0.80078 q -1.09375,3.23242 -3.095703,4.77539 -1.992188,1.54297 -5.058594,1.54297 -2.705078,0 -4.833985,-1.20117 -2.11914,-1.20118 -3.291015,-3.38868 -1.16211,-2.1875 -1.16211,-4.9707 0,-2.91015 1.201172,-5.23437 1.210938,-2.32422 3.359375,-3.62305 2.148438,-1.29883 4.84375,-1.29883 2.119141,0 3.808594,0.79102 1.689453,0.79101 2.763672,2.29492 1.083984,1.49414 1.464844,3.55469 l -5.634766,0.23437 q -0.05859,-2.80273 -2.285156,-2.80273 -2.998047,0 -2.998047,5.83984 0,5.76172 3.4375,5.76172 2.480469,0 3.320312,-3.07617 z"
       style="font-size:40px;line-height:1.25;font-family:'Franklin Gothic';-inkscape-font-specification:'Franklin Gothic';white-space:pre;shape-inside:url(#rect2366)"
       id="path18654" />
    <path
       d="M 73.361328,429.34495 V 410.42893 H 79.5625 v 3.87696 q 2.792969,-4.08204 7.041016,-4.08204 v 6.16211 q -1.71875,-0.64453 -3.03711,-0.64453 -2.919922,0 -4.003906,2.16797 v 11.43555 z"
       style="font-size:40px;line-height:1.25;font-family:'Franklin Gothic';-inkscape-font-specification:'Franklin Gothic';white-space:pre;shape-inside:url(#rect2366)"
       id="path18656" />
    <path
       d="m 97.443359,410.02854 q 2.744141,0 4.863281,1.24024 2.11914,1.23046 3.28125,3.46679 1.17188,2.23633 1.17188,5.12696 0,2.17773 -0.67383,4.0039 -0.66406,1.82617 -1.9043,3.14453 -1.23047,1.3086 -2.95898,2.02149 -1.728519,0.71289 -3.779301,0.71289 -2.724609,0 -4.84375,-1.24024 -2.109375,-1.24023 -3.28125,-3.49609 -1.162109,-2.25586 -1.162109,-5.14648 0,-2.86133 1.162109,-5.10743 1.171875,-2.25586 3.291016,-3.48632 2.119141,-1.24024 4.833984,-1.24024 z m 0.03906,4.0332 q -2.802735,0 -2.802735,6.00586 0,5.59571 2.841797,5.59571 2.675789,0 2.675789,-5.95703 0,-5.64454 -2.714851,-5.64454 z"
       style="font-size:40px;line-height:1.25;font-family:'Franklin Gothic';-inkscape-font-specification:'Franklin Gothic';white-space:pre;shape-inside:url(#rect2366)"
       id="path18658" />
    <path
       d="m 110.00195,429.34495 v -26.79688 h 6.20118 v 11.24024 q 2.86132,-3.75977 6.24023,-3.75977 1.21094,0 2.26562,0.52735 1.06446,0.52734 1.69922,1.46484 0.9961,1.46484 0.9961,3.92578 v 13.39844 h -6.20117 V 417.6262 q 0,-3.16406 -2.00196,-3.16406 -1.71875,0 -2.99804,2.04101 v 12.8418 z"
       style="font-size:40px;line-height:1.25;font-family:'Franklin Gothic';-inkscape-font-specification:'Franklin Gothic';white-space:pre;shape-inside:url(#rect2366)"
       id="path18660" />
    <path
       d="m 148.24414,416.14182 v 9.4043 q 0,1.2793 0.0684,1.95312 0.0684,0.66407 0.41016,1.84571 h -6.20118 q -0.16601,-0.90821 -0.23437,-2.00196 -2.98828,2.40235 -6.00586,2.40235 -2.45117,0 -4.00391,-1.44531 -1.55273,-1.44532 -1.55273,-3.71094 0,-3.41797 2.94922,-5.20508 2.95898,-1.79687 8.61328,-1.79687 v -1.44532 q 0,-1.11328 -0.68359,-1.72851 -0.6836,-0.625 -1.92383,-0.625 -1.23047,0 -1.89453,0.5664 -0.66407,0.56641 -0.89844,1.78711 l -5.2832,-1.27929 q 0.44921,-1.52344 1.59179,-2.61719 1.15235,-1.09375 2.91016,-1.65039 1.75781,-0.56641 4.01367,-0.56641 4.16016,0 6.14258,1.43555 1.98242,1.43555 1.98242,4.67773 z m -5.95703,4.4043 h -0.48828 q -2.08008,0 -3.45703,0.92773 -1.37696,0.91797 -1.37696,2.31446 0,0.98633 0.63477,1.66992 0.63476,0.68359 1.5625,0.68359 1.34766,0 3.125,-1.24023 z"
       style="font-size:40px;line-height:1.25;font-family:'Franklin Gothic';-inkscape-font-specification:'Franklin Gothic';white-space:pre;shape-inside:url(#rect2366)"
       id="path18662" />
    <path
       d="m 152.63867,429.34495 v -18.91602 h 6.20117 v 3.87696 q 2.79297,-4.08204 7.04102,-4.08204 v 6.16211 q -1.71875,-0.64453 -3.03711,-0.64453 -2.91992,0 -4.00391,2.16797 v 11.43555 z"
       style="font-size:40px;line-height:1.25;font-family:'Franklin Gothic';-inkscape-font-specification:'Franklin Gothic';white-space:pre;shape-inside:url(#rect2366)"
       id="path18664" />
    <path
       d="m 179.71875,429.34495 v -2.23633 q -2.29492,2.63672 -5.2832,2.63672 -2.10938,0 -3.69141,-1.13281 -1.57227,-1.14258 -2.42187,-3.26172 -0.83985,-2.12891 -0.83985,-5.00977 0,-4.69726 1.91406,-7.35351 1.00586,-1.39649 2.42188,-2.17774 1.41601,-0.78125 2.93945,-0.78125 1.33789,0 2.46094,0.53711 1.13281,0.53711 2.5,1.81641 v -9.83399 h 6.20117 v 26.79688 z m 0,-13.87696 q -1.20117,-1.60156 -2.76367,-1.60156 -1.40625,0 -2.1875,1.41602 -0.77149,1.41601 -0.77149,3.94531 0,6.64063 2.91993,6.64063 1.27929,0 2.80273,-1.67969 z"
       style="font-size:40px;line-height:1.25;font-family:'Franklin Gothic';-inkscape-font-specification:'Franklin Gothic';white-space:pre;shape-inside:url(#rect2366)"
       id="path18666" />
    <path
       d="m 37.896482,513.74458 v -56.91664 h 19.624992 q 10.541662,0 18.354159,5.125 10.749995,7.24999 10.749995,23.29165 0,8.25 -2.958332,14.39583 -2.958332,6.14583 -8.645829,9.75 -6.583331,4.02083 -13.562495,4.27083 -1.124999,0.0833 -4.020831,0.0833 z m 15.624994,-45.47915 v 34.29166 q 6.20833,-0.0417 9.854162,-1.75 3.645832,-1.72917 5.249998,-5.5625 1.604166,-3.83333 1.604166,-10.4375 0,-11.91666 -7.416664,-15.18749 -3.062498,-1.35417 -8.104163,-1.35417 z"
       style="font-size:85.3333px;line-height:1.05;font-family:'Franklin Gothic';-inkscape-font-specification:'Franklin Gothic';white-space:pre;shape-inside:url(#rect2366)"
       id="path18668" />
    <path
       d="m 111.20895,472.53626 q 5.85416,0 10.375,2.64584 4.52083,2.625 6.99999,7.39583 2.5,4.77083 2.5,10.93749 0,4.64583 -1.4375,8.54167 -1.41666,3.89583 -4.0625,6.70833 -2.625,2.79166 -6.31249,4.31249 -3.6875,1.52084 -8.0625,1.52084 -5.8125,0 -10.33333,-2.64584 -4.499997,-2.64583 -6.999996,-7.45833 -2.479166,-4.81249 -2.479166,-10.97916 0,-6.10416 2.479166,-10.89583 2.499999,-4.81249 7.020826,-7.43749 4.52084,-2.64584 10.3125,-2.64584 z m 0.0833,8.60417 q -5.97916,0 -5.97916,12.81249 0,11.9375 6.0625,11.9375 5.70833,0 5.70833,-12.70833 0,-12.04166 -5.79167,-12.04166 z"
       style="font-size:85.3333px;line-height:1.05;font-family:'Franklin Gothic';-inkscape-font-specification:'Franklin Gothic';white-space:pre;shape-inside:url(#rect2366)"
       id="path18670" />
    <path
       d="m 155.41726,472.53626 q 5.85417,0 10.375,2.64584 4.52083,2.625 7,7.39583 2.49999,4.77083 2.49999,10.93749 0,4.64583 -1.43749,8.54167 -1.41667,3.89583 -4.0625,6.70833 -2.625,2.79166 -6.3125,4.31249 -3.6875,1.52084 -8.0625,1.52084 -5.81249,0 -10.33333,-2.64584 -4.49999,-2.64583 -6.99999,-7.45833 -2.47917,-4.81249 -2.47917,-10.97916 0,-6.10416 2.47917,-10.89583 2.5,-4.81249 7.02083,-7.43749 4.52083,-2.64584 10.31249,-2.64584 z m 0.0833,8.60417 q -5.97917,0 -5.97917,12.81249 0,11.9375 6.0625,11.9375 5.70833,0 5.70833,-12.70833 0,-12.04166 -5.79166,-12.04166 z"
       style="font-size:85.3333px;line-height:1.05;font-family:'Franklin Gothic';-inkscape-font-specification:'Franklin Gothic';white-space:pre;shape-inside:url(#rect2366)"
       id="path18672" />
    <path
       d="m 182.20892,513.74458 v -40.35415 h 13.22916 v 8.27083 q 5.95833,-8.70833 15.02082,-8.70833 v 13.14583 q -3.66666,-1.375 -6.47916,-1.375 -6.22916,0 -8.54166,4.625 v 24.39582 z"
       style="font-size:85.3333px;line-height:1.05;font-family:'Franklin Gothic';-inkscape-font-specification:'Franklin Gothic';white-space:pre;shape-inside:url(#rect2366)"
       id="path18674" />
    <path
       d="m 213.27141,505.39042 8.10417,-4.35417 q 3.22916,5.70833 10.58332,5.70833 3.02084,0 4.70834,-0.97916 1.6875,-0.97917 1.6875,-2.6875 0,-2.14583 -1.72917,-2.72917 -1.72917,-0.58333 -7.22916,-1.625 -5.5,-1.04166 -8.35417,-2.64583 -5.89583,-3.3125 -5.89583,-9.64583 0,-3.97916 2.1875,-7.14583 2.1875,-3.1875 6.08333,-4.95833 3.89583,-1.79167 8.70833,-1.79167 11.875,0 16.64583,8.875 l -7.85417,4.16667 q -2.62499,-5.10417 -8.70833,-5.10417 -2.47916,0 -4.02083,0.91667 -1.52083,0.91666 -1.52083,2.39583 0,1.64583 1.52083,2.35417 1.54167,0.70833 5.25,1.3125 3.72917,0.58333 6.35416,1.29166 2.625,0.6875 5.04167,2.39583 2.5625,1.77084 3.91666,4.29167 1.375,2.52083 1.375,5.60416 0,3.97917 -2.22916,7.08333 -2.22917,3.08334 -6.29167,4.79167 -4.06249,1.6875 -9.31249,1.6875 -14.5,0 -19.02083,-9.20833 z"
       style="font-size:85.3333px;line-height:1.05;font-family:'Franklin Gothic';-inkscape-font-specification:'Franklin Gothic';white-space:pre;shape-inside:url(#rect2366)"
       id="path18676" />
    <path
       d="m 281.29221,500.43209 11.77083,-3.5 q 1.8125,6.99999 7.33333,6.99999 2.75,0 4.9375,-1.91666 2.20833,-1.91667 3.25,-5.25 0.9375,-2.9375 1.29167,-8.70833 -6.64583,3.33333 -12.72917,3.33333 -4.91666,0 -8.87499,-2.0625 -3.9375,-2.08333 -6.14583,-5.81249 -2.20834,-3.75 -2.20834,-8.41667 0,-4.04166 1.54167,-7.39583 1.5625,-3.375 4.41667,-5.79166 2.85416,-2.41667 6.79166,-3.70833 3.95833,-1.29167 8.66666,-1.29167 5.39583,0 9.75,1.875 4.375,1.85417 7.52083,5.41666 3.14583,3.5625 4.79166,8.52083 1.66667,4.95834 1.66667,11.0625 0,4.5 -1.02083,8.79166 -1,4.29167 -2.9375,7.9375 -1.9375,3.625 -4.66667,6.3125 -3.625,3.58333 -8.16666,5.56249 -4.54167,1.95834 -9.22916,1.95834 -6.1875,0 -11.02083,-3.77083 -4.83333,-3.77084 -6.72917,-10.14583 z m 28.91666,-20.64583 q 0,-14.08333 -8.1875,-14.08333 -2.0625,0 -3.89583,1.125 -1.8125,1.10417 -2.89583,3 -1.0625,1.875 -1.0625,4.0625 0,3.39583 2.41666,5.70833 2.4375,2.3125 5.95834,2.3125 2.95833,0 7.66666,-2.125 z"
       style="font-size:85.3333px;line-height:1.05;font-family:'Franklin Gothic';-inkscape-font-specification:'Franklin Gothic';white-space:pre;shape-inside:url(#rect2366)"
       id="path18678" />
    <path
       d="m 376.77132,490.70292 v 10.5 h -9.12499 v 12.54166 h -14.41667 v -12.54166 h -23.81249 v -11.4375 l 24.22916,-32.33332 h 14 v 33.27082 z m -37.45832,0 h 13.91666 v -18.43749 z"
       style="font-size:85.3333px;line-height:1.05;font-family:'Franklin Gothic';-inkscape-font-specification:'Franklin Gothic';white-space:pre;shape-inside:url(#rect2366)"
       id="path18680" />
  </g>
</svg>
